<svg width="350" height="84" viewBox="0 0 350 84" fill="none" xmlns="http://www.w3.org/2000/svg">
<path d="M27.0243 40.9253C24.8362 40.9253 23.1323 40.3502 21.9127 39.1999C20.6931 38.0137 20.0833 36.396 20.0833 34.3471V4.79889C20.0833 4.1159 20.2626 3.59467 20.6213 3.2352C20.9801 2.83979 21.4643 2.64208 22.0741 2.64208C22.7198 2.64208 23.222 2.83979 23.5807 3.2352C23.9394 3.59467 24.1188 4.1159 24.1188 4.79889V34.4549C24.1188 35.3895 24.3699 36.1444 24.8721 36.7196C25.4101 37.2947 26.1096 37.5823 26.9705 37.5823H44.8882C46.2872 37.5823 46.9867 38.1395 46.9867 39.2538C46.9867 39.793 46.8073 40.2064 46.4486 40.494C46.0899 40.7815 45.5697 40.9253 44.8882 40.9253H27.0243Z" fill="#0B1539"/>
<path d="M56.0775 8.24977C55.2883 8.24977 54.6068 7.99815 54.0328 7.49489C53.4948 6.95569 53.2257 6.30865 53.2257 5.55377C53.2257 4.79889 53.4948 4.15185 54.0328 3.61265C54.6068 3.07345 55.2883 2.80385 56.0775 2.80385C56.8666 2.80385 57.5482 3.09142 58.1221 3.66657C58.7319 4.20577 59.0368 4.83483 59.0368 5.55377C59.0368 6.2727 58.7319 6.90177 58.1221 7.44097C57.5482 7.98017 56.8666 8.24977 56.0775 8.24977ZM56.0775 41.4645C55.4677 41.4645 54.9834 41.2848 54.6247 40.9253C54.3019 40.5299 54.1404 39.9907 54.1404 39.3077V16.1221C54.1404 15.4391 54.3019 14.9179 54.6247 14.5584C54.9834 14.163 55.4677 13.9653 56.0775 13.9653C56.7232 13.9653 57.2074 14.163 57.5303 14.5584C57.889 14.9179 58.0683 15.4391 58.0683 16.1221V39.3077C58.0683 39.9907 57.889 40.5299 57.5303 40.9253C57.2074 41.2848 56.7232 41.4645 56.0775 41.4645Z" fill="#0B1539"/>
<path d="M79.3758 41.4645C77.654 41.4645 76.1833 40.9433 74.9636 39.9009C73.7799 38.8584 72.7934 37.2408 72.0043 35.048L65.3322 16.5535C65.2605 16.2659 65.2246 16.0682 65.2246 15.9603C65.2246 15.5649 65.3502 15.2055 65.6013 14.8819C65.8524 14.5225 66.1752 14.2708 66.5698 14.1271C66.7491 14.0552 67.0182 14.0192 67.3769 14.0192C67.8073 14.0192 68.1661 14.1271 68.453 14.3427C68.7759 14.5584 69.009 14.864 69.1525 15.2594L75.9322 33.9696C76.5061 35.5154 77.0442 36.5938 77.5464 37.2048C78.0486 37.8159 78.6584 38.1215 79.3758 38.1215C80.0932 38.1215 80.703 37.8339 81.2052 37.2588C81.7433 36.6477 82.2814 35.5872 82.8194 34.0775L89.5991 15.2594C89.9219 14.4326 90.5138 14.0192 91.3747 14.0192C92.0204 14.0192 92.5405 14.2169 92.9351 14.6123C93.3656 14.9718 93.5808 15.4211 93.5808 15.9603C93.5808 16.0682 93.5449 16.2659 93.4732 16.5535L86.6935 35.1559C85.9044 37.3486 84.9179 38.9483 83.7342 39.9548C82.5504 40.9613 81.0976 41.4645 79.3758 41.4645Z" fill="#0B1539"/>
<path d="M110.44 41.4645C105.777 41.4645 102.172 40.2603 99.6252 37.8519C97.0784 35.4435 95.8049 32.0285 95.8049 27.6071C95.8049 23.3654 97.0963 20.0403 99.679 17.6319C102.262 15.1875 105.795 13.9653 110.279 13.9653C113.041 13.9653 115.498 14.4146 117.65 15.3133C119.803 16.176 121.471 17.4162 122.655 19.0338C123.874 20.6154 124.484 22.4307 124.484 24.4797C124.484 25.9895 124.053 27.1577 123.193 27.9845C122.368 28.8113 121.22 29.2247 119.749 29.2247H99.8404C99.8404 31.9926 100.773 34.1674 102.638 35.749C104.504 37.2947 107.104 38.0676 110.44 38.0676C112.485 38.0676 114.243 37.8519 115.713 37.4205C117.184 36.9532 118.565 36.2163 119.857 35.2098C120.538 34.6347 121.094 34.3471 121.525 34.3471C121.847 34.3471 122.152 34.4909 122.439 34.7784C122.941 35.2098 123.193 35.6591 123.193 36.1264C123.193 36.4859 122.977 36.8813 122.547 37.3127C121.076 38.7146 119.354 39.7571 117.381 40.4401C115.409 41.123 113.095 41.4645 110.44 41.4645ZM118.565 26.0434C119.211 26.0434 119.695 25.9176 120.018 25.666C120.341 25.3784 120.502 24.8751 120.502 24.1562C120.502 22.8621 120.072 21.6938 119.211 20.6514C118.35 19.6089 117.13 18.8001 115.552 18.225C114.01 17.6498 112.252 17.3623 110.279 17.3623C107.086 17.3623 104.558 18.1531 102.692 19.7347C100.863 21.2805 99.9481 23.3833 99.9481 26.0434H118.565Z" fill="#0B1539"/>
<path d="M133.047 41.4645C132.437 41.4645 131.953 41.2848 131.594 40.9253C131.235 40.5299 131.056 39.9907 131.056 39.3077V4.79889C131.056 4.1159 131.235 3.59467 131.594 3.2352C131.953 2.83979 132.437 2.64208 133.047 2.64208C133.692 2.64208 134.195 2.83979 134.553 3.2352C134.912 3.59467 135.091 4.1159 135.091 4.79889V19.8426H158.713V4.79889C158.713 4.1159 158.892 3.59467 159.251 3.2352C159.609 2.83979 160.112 2.64208 160.757 2.64208C161.367 2.64208 161.851 2.83979 162.21 3.2352C162.569 3.59467 162.748 4.1159 162.748 4.79889V39.3077C162.748 39.9907 162.569 40.5299 162.21 40.9253C161.851 41.2848 161.367 41.4645 160.757 41.4645C160.147 41.4645 159.645 41.2848 159.251 40.9253C158.892 40.5299 158.713 39.9907 158.713 39.3077V23.2396H135.091V39.3077C135.091 39.9907 134.912 40.5299 134.553 40.9253C134.195 41.2848 133.692 41.4645 133.047 41.4645Z" fill="#0B1539"/>
<path d="M183.952 41.4645C179.288 41.4645 175.683 40.2603 173.137 37.8519C170.59 35.4435 169.316 32.0285 169.316 27.6071C169.316 23.3654 170.608 20.0403 173.19 17.6319C175.773 15.1875 179.306 13.9653 183.79 13.9653C186.552 13.9653 189.01 14.4146 191.162 15.3133C193.314 16.176 194.982 17.4162 196.166 19.0338C197.386 20.6154 197.995 22.4307 197.995 24.4797C197.995 25.9895 197.565 27.1577 196.704 27.9845C195.879 28.8113 194.731 29.2247 193.26 29.2247H173.352C173.352 31.9926 174.284 34.1674 176.15 35.749C178.015 37.2947 180.616 38.0676 183.952 38.0676C185.996 38.0676 187.754 37.8519 189.225 37.4205C190.696 36.9532 192.077 36.2163 193.368 35.2098C194.049 34.6347 194.605 34.3471 195.036 34.3471C195.359 34.3471 195.664 34.4909 195.951 34.7784C196.453 35.2098 196.704 35.6591 196.704 36.1264C196.704 36.4859 196.489 36.8813 196.058 37.3127C194.588 38.7146 192.866 39.7571 190.893 40.4401C188.92 41.123 186.606 41.4645 183.952 41.4645ZM192.077 26.0434C192.722 26.0434 193.207 25.9176 193.529 25.666C193.852 25.3784 194.014 24.8751 194.014 24.1562C194.014 22.8621 193.583 21.6938 192.722 20.6514C191.861 19.6089 190.642 18.8001 189.063 18.225C187.521 17.6498 185.763 17.3623 183.79 17.3623C180.598 17.3623 178.069 18.1531 176.204 19.7347C174.374 21.2805 173.459 23.3833 173.459 26.0434H192.077Z" fill="#0B1539"/>
<path d="M212.564 41.4645C209.048 41.4645 206.286 40.6917 204.277 39.146C202.304 37.6003 201.318 35.4614 201.318 32.7295C201.318 30.0335 202.358 27.8946 204.439 26.313C206.555 24.7313 209.425 23.9405 213.048 23.9405C215.164 23.9405 217.029 24.2281 218.644 24.8032C220.294 25.3784 221.567 26.1512 222.464 27.1218V23.6709C222.464 21.6219 221.782 20.0583 220.419 18.9799C219.092 17.9015 217.137 17.3623 214.554 17.3623C211.218 17.3623 208.331 18.1531 205.891 19.7347C205.282 20.0942 204.779 20.2739 204.385 20.2739C204.026 20.2739 203.667 20.1302 203.309 19.8426C202.914 19.5191 202.717 19.1057 202.717 18.6024C202.717 18.0632 202.95 17.6139 203.416 17.2544C204.708 16.2479 206.34 15.4571 208.313 14.8819C210.322 14.2708 212.366 13.9653 214.447 13.9653C218.249 13.9653 221.191 14.828 223.271 16.5535C225.387 18.2789 226.446 20.7053 226.446 23.8327V39.3617C226.446 40.7636 225.8 41.4645 224.509 41.4645C223.935 41.4645 223.468 41.2848 223.11 40.9253C222.751 40.5299 222.572 40.0267 222.572 39.4156V37.4744C220.348 40.1345 217.012 41.4645 212.564 41.4645ZM213.048 38.1754C215.846 38.1754 218.124 37.6542 219.881 36.6117C221.639 35.5333 222.518 34.1494 222.518 32.4599C222.518 30.7704 221.693 29.4763 220.043 28.5776C218.428 27.643 216.133 27.1757 213.155 27.1757C210.644 27.1757 208.707 27.661 207.344 28.6316C205.981 29.5662 205.3 30.9321 205.3 32.7295C205.3 34.4909 205.963 35.8389 207.29 36.7735C208.618 37.7081 210.537 38.1754 213.048 38.1754Z" fill="#0B1539"/>
<path d="M236.786 41.4645C236.176 41.4645 235.692 41.2848 235.333 40.9253C235.01 40.5299 234.849 39.9907 234.849 39.3077V2.1568C234.849 1.47382 235.01 0.952589 235.333 0.593123C235.692 0.197708 236.176 0 236.786 0C237.396 0 237.88 0.197708 238.239 0.593123C238.597 0.952589 238.777 1.47382 238.777 2.1568V39.3077C238.777 39.9548 238.597 40.476 238.239 40.8714C237.916 41.2668 237.431 41.4645 236.786 41.4645Z" fill="#0B1539"/>
<path d="M265.405 35.5872C265.799 35.9108 265.997 36.2882 265.997 36.7196C265.997 37.079 265.835 37.5104 265.512 38.0137C264.759 39.0561 263.719 39.9009 262.392 40.5479C261.064 41.159 259.701 41.4645 258.302 41.4645C255.935 41.4645 254.069 40.7636 252.706 39.3617C251.343 37.9597 250.662 36.0366 250.662 33.5922V17.7936H247.756C246.321 17.7936 245.604 17.2365 245.604 16.1221C245.604 15.6188 245.783 15.2234 246.142 14.9359C246.536 14.6483 247.074 14.5045 247.756 14.5045H250.662V5.28417C250.662 4.60118 250.823 4.07995 251.146 3.72048C251.505 3.32507 252.007 3.12737 252.652 3.12737C253.262 3.12737 253.729 3.32507 254.051 3.72048C254.41 4.07995 254.59 4.60118 254.59 5.28417V14.5045H261.907C262.553 14.5045 263.055 14.6483 263.414 14.9359C263.808 15.1875 264.006 15.5829 264.006 16.1221C264.006 17.2365 263.306 17.7936 261.907 17.7936H254.59V33.9157C254.59 36.6836 255.881 38.0676 258.464 38.0676C259.289 38.0676 260.042 37.9058 260.723 37.5823C261.405 37.2588 262.087 36.7375 262.768 36.0186C263.306 35.4435 263.826 35.1559 264.329 35.1559C264.651 35.1559 265.01 35.2997 265.405 35.5872Z" fill="#0B1539"/>
<path d="M273.753 41.4645C273.143 41.4645 272.659 41.2848 272.3 40.9253C271.977 40.5299 271.816 39.9907 271.816 39.3077V2.1568C271.816 1.47382 271.977 0.952589 272.3 0.593123C272.659 0.197708 273.143 0 273.753 0C274.363 0 274.847 0.197708 275.205 0.593123C275.564 0.952589 275.744 1.47382 275.744 2.1568V19.3034C277.071 17.542 278.667 16.212 280.532 15.3133C282.434 14.4146 284.496 13.9653 286.72 13.9653C290.128 13.9653 292.746 14.9179 294.576 16.8231C296.441 18.7282 297.374 21.4602 297.374 25.0189V39.3077C297.374 39.9907 297.195 40.5299 296.836 40.9253C296.477 41.2848 295.993 41.4645 295.383 41.4645C294.737 41.4645 294.253 41.2848 293.93 40.9253C293.607 40.5299 293.446 39.9907 293.446 39.3077V25.0189C293.446 19.9145 291.043 17.3623 286.236 17.3623C283.079 17.3623 280.532 18.2969 278.595 20.1661C276.694 22.0353 275.744 24.5157 275.744 27.6071V39.3077C275.744 39.9548 275.564 40.476 275.205 40.8714C274.883 41.2668 274.398 41.4645 273.753 41.4645Z" fill="#0B1539"/>
<path d="M316.708 54.4053C314.054 54.4053 311.686 54.0099 309.606 53.2191C307.525 52.4283 306.001 51.3499 305.032 49.9839C304.781 49.6244 304.655 49.265 304.655 48.9055C304.655 48.3304 304.942 47.8271 305.516 47.3957C305.732 47.216 306.054 47.1261 306.485 47.1261C307.095 47.1261 307.669 47.4137 308.207 47.9889C308.996 48.9235 310.144 49.6604 311.65 50.1996C313.193 50.7747 314.825 51.0623 316.547 51.0623C319.775 51.0623 322.322 50.0917 324.187 48.1506C326.088 46.2095 327.039 43.5854 327.039 40.2783V36.6117C325.927 38.0855 324.51 39.2179 322.788 40.0087C321.066 40.7636 319.165 41.141 317.085 41.141C312.709 41.141 309.283 39.9009 306.808 37.4205C304.368 34.9043 303.149 31.4174 303.149 26.96V15.9603C303.149 15.4211 303.346 14.9718 303.741 14.6123C304.135 14.2169 304.62 14.0192 305.193 14.0192C305.767 14.0192 306.234 14.2169 306.592 14.6123C306.987 14.9718 307.184 15.4211 307.184 15.9603V26.96C307.184 30.4109 308.045 33.1069 309.767 35.048C311.525 36.9532 313.964 37.9058 317.085 37.9058C320.17 37.9058 322.555 36.9892 324.241 35.1559C325.927 33.3226 326.77 30.7165 326.77 27.3375V16.4995C326.77 15.7087 326.949 15.0976 327.308 14.6663C327.703 14.199 328.241 13.9653 328.922 13.9653C329.568 13.9653 330.07 14.199 330.429 14.6663C330.823 15.0976 331.021 15.7087 331.021 16.4995V40.0087C331.021 42.8485 330.411 45.3468 329.191 47.5036C328.008 49.6963 326.34 51.3858 324.187 52.5721C322.035 53.7943 319.542 54.4053 316.708 54.4053Z" fill="#0B1539"/>
<path d="M1.16133 74.91C0.805607 74.91 0.523121 74.8051 0.313873 74.5954C0.104624 74.3648 0 74.0502 0 73.6518V61.3536C0 58.5018 0.795144 56.2791 2.38543 54.6855C3.99665 53.0708 6.22514 52.2635 9.07092 52.2635C11.8958 52.2635 14.1138 53.0708 15.725 54.6855C17.3362 56.3001 18.1418 58.5228 18.1418 61.3536V73.6518C18.1418 74.0502 18.0372 74.3648 17.828 74.5954C17.6187 74.8051 17.3258 74.91 16.9491 74.91C16.5934 74.91 16.3005 74.8051 16.0703 74.5954C15.861 74.3648 15.7564 74.0502 15.7564 73.6518V66.5748H2.35405V73.6518C2.35405 74.0502 2.24942 74.3648 2.04017 74.5954C1.83092 74.8051 1.53798 74.91 1.16133 74.91ZM15.7564 64.6247V61.2592C15.7564 59.0155 15.181 57.2961 14.0301 56.1009C12.8792 54.8847 11.2262 54.2766 9.07092 54.2766C6.89474 54.2766 5.23121 54.8742 4.08035 56.0694C2.92948 57.2646 2.35405 58.9946 2.35405 61.2592V64.6247H15.7564Z" fill="#90D2C8"/>
<path d="M32.5209 74.91C32.1652 74.91 31.8827 74.8051 31.6734 74.5954C31.4642 74.3648 31.3596 74.0502 31.3596 73.6518V53.5217C31.3596 53.1233 31.4642 52.8192 31.6734 52.6095C31.8827 52.3789 32.1652 52.2635 32.5209 52.2635C32.8975 52.2635 33.1905 52.3789 33.3997 52.6095C33.609 52.8192 33.7136 53.1233 33.7136 53.5217V62.2972H47.4926V53.5217C47.4926 53.1233 47.5973 52.8192 47.8065 52.6095C48.0157 52.3789 48.3087 52.2635 48.6853 52.2635C49.0411 52.2635 49.3235 52.3789 49.5328 52.6095C49.742 52.8192 49.8467 53.1233 49.8467 53.5217V73.6518C49.8467 74.0502 49.742 74.3648 49.5328 74.5954C49.3235 74.8051 49.0411 74.91 48.6853 74.91C48.3296 74.91 48.0367 74.8051 47.8065 74.5954C47.5973 74.3648 47.4926 74.0502 47.4926 73.6518V64.2787H33.7136V73.6518C33.7136 74.0502 33.609 74.3648 33.3997 74.5954C33.1905 74.8051 32.8975 74.91 32.5209 74.91Z" fill="#90D2C8"/>
<path d="M62.2155 74.91C59.4952 74.91 57.3923 74.2075 55.9066 72.8026C54.421 71.3977 53.6781 69.4056 53.6781 66.8265C53.6781 64.3521 54.4314 62.4125 55.938 61.0076C57.4446 59.5817 59.5057 58.8687 62.1213 58.8687C63.7325 58.8687 65.1659 59.1309 66.4214 59.6551C67.6768 60.1583 68.6499 60.8818 69.3404 61.8254C70.0518 62.748 70.4075 63.8069 70.4075 65.0022C70.4075 65.8829 70.1564 66.5643 69.6543 67.0466C69.173 67.5289 68.5034 67.7701 67.6455 67.7701H56.0322C56.0322 69.3847 56.5762 70.6533 57.6643 71.5759C58.7524 72.4776 60.2695 72.9284 62.2155 72.9284C63.4082 72.9284 64.4335 72.8026 65.2914 72.551C66.1493 72.2784 66.9549 71.8485 67.7082 71.2614C68.1058 70.9259 68.4301 70.7581 68.6812 70.7581C68.8696 70.7581 69.0474 70.842 69.2148 71.0097C69.5078 71.2614 69.6543 71.5235 69.6543 71.7961C69.6543 72.0058 69.5287 72.2364 69.2776 72.4881C68.4197 73.3058 67.4153 73.9139 66.2644 74.3124C65.1136 74.7108 63.7639 74.91 62.2155 74.91ZM66.9549 65.9143C67.3316 65.9143 67.6141 65.8409 67.8024 65.6941C67.9907 65.5264 68.0849 65.2328 68.0849 64.8134C68.0849 64.0586 67.8338 63.3771 67.3316 62.769C66.8294 62.1609 66.1179 61.6891 65.1973 61.3536C64.2975 61.0181 63.2722 60.8503 62.1213 60.8503C60.259 60.8503 58.7838 61.3116 57.6957 62.2343C56.6285 63.1359 56.0949 64.3626 56.0949 65.9143H66.9549Z" fill="#90D2C8"/>
<path d="M78.9056 74.91C76.855 74.91 75.2438 74.4591 74.072 73.5575C72.9211 72.6558 72.3457 71.4082 72.3457 69.8145C72.3457 68.2419 72.9525 66.9942 74.1662 66.0716C75.4007 65.1489 77.0747 64.6876 79.1881 64.6876C80.4227 64.6876 81.5108 64.8554 82.4524 65.1909C83.415 65.5264 84.1578 65.9772 84.6809 66.5434V64.5304C84.6809 63.3351 84.2833 62.423 83.4882 61.7939C82.714 61.1648 81.5736 60.8503 80.067 60.8503C78.121 60.8503 76.4365 61.3116 75.0136 62.2343C74.6579 62.444 74.365 62.5488 74.1348 62.5488C73.9255 62.5488 73.7163 62.4649 73.507 62.2972C73.2769 62.1084 73.1618 61.8673 73.1618 61.5737C73.1618 61.2592 73.2978 60.9971 73.5698 60.7874C74.3231 60.2003 75.2752 59.739 76.426 59.4035C77.5978 59.047 78.7906 58.8687 80.0042 58.8687C82.2222 58.8687 83.9381 59.372 85.1517 60.3785C86.3863 61.385 87.0036 62.8004 87.0036 64.6247V73.6833C87.0036 74.5011 86.6269 74.91 85.8736 74.91C85.5388 74.91 85.2668 74.8051 85.0576 74.5954C84.8483 74.3648 84.7437 74.0712 84.7437 73.7147V72.5824C83.4463 74.1341 81.5003 74.91 78.9056 74.91ZM79.1881 72.9913C80.8203 72.9913 82.149 72.6873 83.1743 72.0792C84.1996 71.4501 84.7123 70.6428 84.7123 69.6573C84.7123 68.6717 84.231 67.9168 83.2685 67.3926C82.3269 66.8474 80.9877 66.5748 79.2509 66.5748C77.7862 66.5748 76.6562 66.8579 75.8611 67.4241C75.0659 67.9693 74.6684 68.7661 74.6684 69.8145C74.6684 70.842 75.0555 71.6283 75.8297 72.1735C76.6039 72.7187 77.7234 72.9913 79.1881 72.9913Z" fill="#90D2C8"/>
<path d="M93.0353 74.91C92.6796 74.91 92.3971 74.8051 92.1879 74.5954C91.9995 74.3648 91.9054 74.0502 91.9054 73.6518V51.9805C91.9054 51.5821 91.9995 51.278 92.1879 51.0683C92.3971 50.8377 92.6796 50.7223 93.0353 50.7223C93.391 50.7223 93.6735 50.8377 93.8828 51.0683C94.092 51.278 94.1966 51.5821 94.1966 51.9805V73.6518C94.1966 74.0293 94.092 74.3333 93.8828 74.564C93.6944 74.7946 93.412 74.91 93.0353 74.91Z" fill="#90D2C8"/>
<path d="M109.73 71.4816C109.96 71.6703 110.075 71.8904 110.075 72.1421C110.075 72.3518 109.981 72.6034 109.792 72.897C109.353 73.5051 108.746 73.9978 107.972 74.3753C107.198 74.7317 106.403 74.91 105.587 74.91C104.206 74.91 103.117 74.5011 102.322 73.6833C101.527 72.8655 101.13 71.7437 101.13 70.3178V61.1019H99.4346C98.5977 61.1019 98.1791 60.7769 98.1791 60.1269C98.1791 59.8333 98.2838 59.6027 98.493 59.4349C98.7232 59.2672 99.0371 59.1833 99.4346 59.1833H101.13V53.8048C101.13 53.4063 101.224 53.1023 101.412 52.8926C101.621 52.6619 101.914 52.5466 102.291 52.5466C102.647 52.5466 102.919 52.6619 103.107 52.8926C103.316 53.1023 103.421 53.4063 103.421 53.8048V59.1833H107.689C108.066 59.1833 108.359 59.2672 108.568 59.4349C108.799 59.5817 108.914 59.8123 108.914 60.1269C108.914 60.7769 108.506 61.1019 107.689 61.1019H103.421V70.5065C103.421 72.1211 104.174 72.9284 105.681 72.9284C106.162 72.9284 106.601 72.834 106.999 72.6453C107.397 72.4566 107.794 72.1526 108.192 71.7332C108.506 71.3977 108.809 71.2299 109.102 71.2299C109.29 71.2299 109.499 71.3138 109.73 71.4816Z" fill="#90D2C8"/>
<path d="M114.599 74.91C114.244 74.91 113.961 74.8051 113.752 74.5954C113.564 74.3648 113.469 74.0502 113.469 73.6518V51.9805C113.469 51.5821 113.564 51.278 113.752 51.0683C113.961 50.8377 114.244 50.7223 114.599 50.7223C114.955 50.7223 115.238 50.8377 115.447 51.0683C115.656 51.278 115.761 51.5821 115.761 51.9805V61.9826C116.535 60.9552 117.466 60.1793 118.554 59.6551C119.663 59.1309 120.866 58.8687 122.164 58.8687C124.152 58.8687 125.679 59.4244 126.746 60.5358C127.834 61.6471 128.378 63.2408 128.378 65.3167V73.6518C128.378 74.0502 128.274 74.3648 128.064 74.5954C127.855 74.8051 127.573 74.91 127.217 74.91C126.84 74.91 126.558 74.8051 126.37 74.5954C126.181 74.3648 126.087 74.0502 126.087 73.6518V65.3167C126.087 62.3391 124.685 60.8503 121.881 60.8503C120.04 60.8503 118.554 61.3955 117.424 62.4859C116.315 63.5763 115.761 65.0231 115.761 66.8265V73.6518C115.761 74.0293 115.656 74.3333 115.447 74.564C115.258 74.7946 114.976 74.91 114.599 74.91Z" fill="#90D2C8"/>
<path d="M140.253 74.91C138.579 74.91 137.104 74.585 135.827 73.9349C134.551 73.2639 133.568 72.3203 132.877 71.1041C132.187 69.8879 131.841 68.4725 131.841 66.8579C131.841 65.2643 132.187 63.8698 132.877 62.6746C133.568 61.4584 134.551 60.5253 135.827 59.8753C137.104 59.2043 138.579 58.8687 140.253 58.8687C141.822 58.8687 143.183 59.0889 144.333 59.5293C145.484 59.9696 146.394 60.6197 147.064 61.4794C147.231 61.71 147.315 61.9302 147.315 62.1399C147.315 62.4544 147.158 62.7375 146.844 62.9891C146.698 63.115 146.51 63.1779 146.279 63.1779C145.924 63.1779 145.589 63.0206 145.275 62.7061C144.166 61.4689 142.492 60.8503 140.253 60.8503C138.307 60.8503 136.8 61.3745 135.733 62.423C134.687 63.4505 134.164 64.9288 134.164 66.8579C134.164 68.7661 134.698 70.2549 135.765 71.3243C136.832 72.3937 138.328 72.9284 140.253 72.9284C141.32 72.9284 142.304 72.7711 143.203 72.4566C144.103 72.1211 144.846 71.6493 145.432 71.0412C145.788 70.6847 146.122 70.5065 146.436 70.5065C146.625 70.5065 146.834 70.5904 147.064 70.7581C147.357 71.0097 147.504 71.2823 147.504 71.5759C147.504 71.8485 147.388 72.0792 147.158 72.2679C146.133 73.1905 145.066 73.8615 143.957 74.2809C142.848 74.7003 141.613 74.91 140.253 74.91Z" fill="#90D2C8"/>
<path d="M156.025 74.91C153.975 74.91 152.363 74.4591 151.192 73.5575C150.041 72.6558 149.465 71.4082 149.465 69.8145C149.465 68.2419 150.072 66.9942 151.286 66.0716C152.52 65.1489 154.194 64.6876 156.308 64.6876C157.542 64.6876 158.63 64.8554 159.572 65.1909C160.534 65.5264 161.277 65.9772 161.8 66.5434V64.5304C161.8 63.3351 161.403 62.423 160.608 61.7939C159.833 61.1648 158.693 60.8503 157.186 60.8503C155.24 60.8503 153.556 61.3116 152.133 62.2343C151.777 62.444 151.484 62.5488 151.254 62.5488C151.045 62.5488 150.836 62.4649 150.627 62.2972C150.396 62.1084 150.281 61.8673 150.281 61.5737C150.281 61.2592 150.417 60.9971 150.689 60.7874C151.443 60.2003 152.395 59.739 153.546 59.4035C154.717 59.047 155.91 58.8687 157.124 58.8687C159.342 58.8687 161.058 59.372 162.271 60.3785C163.506 61.385 164.123 62.8004 164.123 64.6247V73.6833C164.123 74.5011 163.746 74.91 162.993 74.91C162.658 74.91 162.386 74.8051 162.177 74.5954C161.968 74.3648 161.863 74.0712 161.863 73.7147V72.5824C160.566 74.1341 158.62 74.91 156.025 74.91ZM156.308 72.9913C157.94 72.9913 159.269 72.6873 160.294 72.0792C161.319 71.4501 161.832 70.6428 161.832 69.6573C161.832 68.6717 161.351 67.9168 160.388 67.3926C159.446 66.8474 158.107 66.5748 156.37 66.5748C154.906 66.5748 153.776 66.8579 152.981 67.4241C152.185 67.9693 151.788 68.7661 151.788 69.8145C151.788 70.842 152.175 71.6283 152.949 72.1735C153.723 72.7187 154.843 72.9913 156.308 72.9913Z" fill="#90D2C8"/>
<path d="M169.527 74.91C169.171 74.91 168.889 74.8051 168.68 74.5954C168.491 74.3648 168.397 74.0502 168.397 73.6518V60.1269C168.397 59.7285 168.491 59.4244 168.68 59.2147C168.868 58.9841 169.15 58.8687 169.527 58.8687C169.883 58.8687 170.155 58.9841 170.343 59.2147C170.552 59.4244 170.657 59.7285 170.657 60.1269V62.0141C172.08 60.1269 174.047 59.1833 176.558 59.1833H177.343C177.74 59.1833 178.054 59.2776 178.284 59.4664C178.514 59.6341 178.629 59.8753 178.629 60.1898C178.629 60.5043 178.514 60.7455 178.284 60.9132C178.054 61.081 177.74 61.1648 177.343 61.1648H176.464C174.685 61.1648 173.273 61.6786 172.226 62.7061C171.201 63.7126 170.688 65.086 170.688 66.8265V73.6518C170.688 74.0293 170.584 74.3333 170.375 74.564C170.186 74.7946 169.904 74.91 169.527 74.91Z" fill="#90D2C8"/>
<path d="M188.194 74.91C185.473 74.91 183.371 74.2075 181.885 72.8026C180.399 71.3977 179.656 69.4056 179.656 66.8265C179.656 64.3521 180.41 62.4125 181.916 61.0076C183.423 59.5817 185.484 58.8687 188.1 58.8687C189.711 58.8687 191.144 59.1309 192.4 59.6551C193.655 60.1583 194.628 60.8818 195.319 61.8254C196.03 62.748 196.386 63.8069 196.386 65.0022C196.386 65.8829 196.135 66.5643 195.632 67.0466C195.151 67.5289 194.482 67.7701 193.624 67.7701H182.01C182.01 69.3847 182.554 70.6533 183.643 71.5759C184.731 72.4776 186.248 72.9284 188.194 72.9284C189.386 72.9284 190.412 72.8026 191.27 72.551C192.128 72.2784 192.933 71.8485 193.686 71.2614C194.084 70.9259 194.408 70.7581 194.659 70.7581C194.848 70.7581 195.026 70.842 195.193 71.0097C195.486 71.2614 195.632 71.5235 195.632 71.7961C195.632 72.0058 195.507 72.2364 195.256 72.4881C194.398 73.3058 193.394 73.9139 192.243 74.3124C191.092 74.7108 189.742 74.91 188.194 74.91ZM192.933 65.9143C193.31 65.9143 193.592 65.8409 193.781 65.6941C193.969 65.5264 194.063 65.2328 194.063 64.8134C194.063 64.0586 193.812 63.3771 193.31 62.769C192.808 62.1609 192.096 61.6891 191.175 61.3536C190.276 61.0181 189.25 60.8503 188.1 60.8503C186.237 60.8503 184.762 61.3116 183.674 62.2343C182.607 63.1359 182.073 64.3626 182.073 65.9143H192.933Z" fill="#90D2C8"/>
<path d="M218.756 74.91C216.58 74.91 214.665 74.4487 213.012 73.526C211.38 72.5824 210.114 71.2614 209.214 69.5629C208.315 67.8434 207.865 65.8619 207.865 63.6182C207.865 61.3536 208.315 59.3615 209.214 57.6421C210.114 55.9226 211.38 54.6016 213.012 53.6789C214.665 52.7353 216.569 52.2635 218.725 52.2635C220.524 52.2635 222.177 52.5676 223.684 53.1757C225.211 53.7838 226.404 54.633 227.262 55.7234C227.429 55.9121 227.513 56.1428 227.513 56.4154C227.513 56.7509 227.367 57.0235 227.074 57.2332C226.885 57.359 226.676 57.4219 226.446 57.4219C226.048 57.4219 225.714 57.2646 225.442 56.9501C224.772 56.0904 223.862 55.4298 222.711 54.9685C221.56 54.5072 220.231 54.2766 218.725 54.2766C216.988 54.2766 215.481 54.654 214.205 55.4089C212.929 56.1638 211.945 57.2437 211.255 58.6486C210.585 60.0535 210.25 61.71 210.25 63.6182C210.25 65.5054 210.585 67.1515 211.255 68.5564C211.945 69.9403 212.929 71.0098 214.205 71.7646C215.502 72.5195 217.019 72.897 218.756 72.897C220.367 72.897 221.769 72.6663 222.962 72.205C224.176 71.7227 225.128 71.0622 225.818 70.2234C226.132 69.8879 226.467 69.7202 226.823 69.7202C227.074 69.7202 227.283 69.7936 227.45 69.9403C227.743 70.192 227.89 70.4646 227.89 70.7581C227.89 71.0097 227.796 71.2509 227.607 71.4816C226.749 72.53 225.525 73.3688 223.935 73.9978C222.366 74.6059 220.639 74.91 218.756 74.91Z" fill="#90D2C8"/>
<path d="M238.802 74.91C236.982 74.91 235.423 74.543 234.126 73.8091C232.828 73.0752 231.845 72.1001 231.175 70.8839C230.527 69.6468 230.202 68.3152 230.202 66.8894C230.202 65.4635 230.527 64.1424 231.175 62.9262C231.845 61.6891 232.828 60.7035 234.126 59.9696C235.423 59.2357 236.982 58.8687 238.802 58.8687C240.623 58.8687 242.171 59.2357 243.448 59.9696C244.745 60.7035 245.718 61.6891 246.367 62.9262C247.036 64.1424 247.371 65.4635 247.371 66.8894C247.371 68.3152 247.036 69.6468 246.367 70.8839C245.718 72.1001 244.745 73.0752 243.448 73.8091C242.171 74.543 240.623 74.91 238.802 74.91ZM238.802 72.9284C240.686 72.9284 242.192 72.3937 243.322 71.3243C244.473 70.2549 245.049 68.7766 245.049 66.8894C245.049 65.0022 244.473 63.5238 243.322 62.4544C242.192 61.385 240.686 60.8503 238.802 60.8503C236.898 60.8503 235.371 61.385 234.22 62.4544C233.09 63.5238 232.525 65.0022 232.525 66.8894C232.525 68.7766 233.09 70.2549 234.22 71.3243C235.371 72.3937 236.898 72.9284 238.802 72.9284Z" fill="#90D2C8"/>
<path d="M251.611 74.91C251.255 74.91 250.972 74.8051 250.763 74.5954C250.575 74.3648 250.481 74.0502 250.481 73.6518V60.1269C250.481 59.7285 250.575 59.4244 250.763 59.2147C250.972 58.9841 251.255 58.8687 251.611 58.8687C251.987 58.8687 252.27 58.9841 252.458 59.2147C252.667 59.4454 252.772 59.7494 252.772 60.1269V61.9197C253.337 60.9761 254.059 60.2317 254.938 59.6865C255.838 59.1413 256.779 58.8687 257.763 58.8687C258.746 58.8687 259.614 59.1413 260.368 59.6865C261.121 60.2108 261.676 60.9552 262.031 61.9197C262.764 60.9342 263.569 60.1793 264.448 59.6551C265.348 59.1309 266.279 58.8687 267.242 58.8687C268.895 58.8687 270.14 59.3825 270.977 60.41C271.814 61.4165 272.232 62.9158 272.232 64.9078V73.6518C272.232 74.0502 272.128 74.3648 271.918 74.5954C271.709 74.8051 271.427 74.91 271.071 74.91C270.317 74.91 269.941 74.4906 269.941 73.6518V64.8449C269.941 63.5029 269.711 62.5069 269.25 61.8568C268.811 61.1858 268.047 60.8503 266.959 60.8503C266.038 60.8503 265.212 61.1334 264.479 61.6996C263.747 62.2447 263.161 63.0416 262.722 64.09V73.6518C262.722 74.0502 262.617 74.3648 262.408 74.5954C262.199 74.8051 261.916 74.91 261.56 74.91C261.205 74.91 260.922 74.8051 260.713 74.5954C260.525 74.3648 260.431 74.0502 260.431 73.6518V65.3167C260.431 63.8698 260.169 62.769 259.646 62.0141C259.144 61.2382 258.422 60.8503 257.48 60.8503C256.58 60.8503 255.775 61.1019 255.063 61.6052C254.352 62.0875 253.787 62.7585 253.368 63.6182C252.971 64.4779 252.772 65.453 252.772 66.5434V73.6518C252.772 74.0293 252.667 74.3333 252.458 74.564C252.27 74.7946 251.987 74.91 251.611 74.91Z" fill="#90D2C8"/>
<path d="M277.511 84C277.156 84 276.873 83.8847 276.664 83.654C276.476 83.4443 276.381 83.1403 276.381 82.7419V60.1269C276.381 59.7285 276.476 59.4244 276.664 59.2147C276.873 58.9841 277.156 58.8687 277.511 58.8687C277.888 58.8687 278.17 58.9841 278.359 59.2147C278.568 59.4454 278.673 59.7494 278.673 60.1269V62.1399C280.284 59.9591 282.607 58.8687 285.641 58.8687C288.173 58.8687 290.16 59.5712 291.604 60.9761C293.069 62.381 293.801 64.3102 293.801 66.7635C293.801 68.4201 293.467 69.8669 292.797 71.1041C292.127 72.3203 291.165 73.2639 289.909 73.9349C288.675 74.585 287.22 74.91 285.546 74.91C284.103 74.91 282.826 74.6583 281.717 74.1551C280.629 73.6309 279.625 72.8131 278.704 71.7017V82.7419C278.704 83.1193 278.599 83.4233 278.39 83.654C278.181 83.8847 277.888 84 277.511 84ZM285.39 72.9284C287.294 72.9284 288.779 72.3832 289.847 71.2928C290.935 70.1815 291.479 68.6507 291.479 66.7006C291.479 64.8134 290.945 63.3666 289.878 62.3601C288.832 61.3536 287.325 60.8503 285.358 60.8503C283.287 60.8503 281.654 61.385 280.462 62.4544C279.269 63.5029 278.673 64.9392 278.673 66.7635C278.673 67.9797 278.945 69.0596 279.489 70.0032C280.054 70.9259 280.838 71.6493 281.843 72.1735C282.868 72.6768 284.05 72.9284 285.39 72.9284Z" fill="#90D2C8"/>
<path d="M303.092 74.91C301.041 74.91 299.43 74.4591 298.258 73.5575C297.107 72.6558 296.532 71.4082 296.532 69.8145C296.532 68.2419 297.139 66.9942 298.352 66.0716C299.587 65.1489 301.261 64.6876 303.374 64.6876C304.609 64.6876 305.697 64.8554 306.638 65.1909C307.601 65.5264 308.344 65.9772 308.867 66.5434V64.5304C308.867 63.3351 308.469 62.423 307.674 61.7939C306.9 61.1648 305.76 60.8503 304.253 60.8503C302.307 60.8503 300.623 61.3116 299.2 62.2343C298.844 62.444 298.551 62.5488 298.321 62.5488C298.112 62.5488 297.902 62.4649 297.693 62.2972C297.463 62.1084 297.348 61.8673 297.348 61.5737C297.348 61.2592 297.484 60.9971 297.756 60.7874C298.509 60.2003 299.461 59.739 300.612 59.4035C301.784 59.047 302.977 58.8687 304.19 58.8687C306.408 58.8687 308.124 59.372 309.338 60.3785C310.572 61.385 311.19 62.8004 311.19 64.6247V73.6833C311.19 74.5011 310.813 74.91 310.06 74.91C309.725 74.91 309.453 74.8051 309.244 74.5954C309.034 74.3648 308.93 74.0712 308.93 73.7147V72.5824C307.632 74.1341 305.686 74.91 303.092 74.91ZM303.374 72.9913C305.006 72.9913 306.335 72.6873 307.36 72.0792C308.386 71.4501 308.898 70.6428 308.898 69.6573C308.898 68.6717 308.417 67.9168 307.455 67.3926C306.513 66.8474 305.174 66.5748 303.437 66.5748C301.972 66.5748 300.842 66.8579 300.047 67.4241C299.252 67.9693 298.854 68.7661 298.854 69.8145C298.854 70.842 299.242 71.6283 300.016 72.1735C300.79 72.7187 301.909 72.9913 303.374 72.9913Z" fill="#90D2C8"/>
<path d="M316.594 74.91C316.238 74.91 315.955 74.8051 315.746 74.5954C315.558 74.3648 315.464 74.0502 315.464 73.6518V60.1269C315.464 59.7285 315.558 59.4244 315.746 59.2147C315.934 58.9841 316.217 58.8687 316.594 58.8687C316.949 58.8687 317.221 58.9841 317.41 59.2147C317.619 59.4244 317.724 59.7285 317.724 60.1269V61.9826C318.498 60.9552 319.429 60.1793 320.517 59.6551C321.626 59.1309 322.84 58.8687 324.158 58.8687C326.146 58.8687 327.673 59.4244 328.74 60.5358C329.829 61.6471 330.373 63.2408 330.373 65.3167V73.6518C330.373 74.0502 330.268 74.3648 330.059 74.5954C329.85 74.8051 329.567 74.91 329.211 74.91C328.835 74.91 328.552 74.8051 328.364 74.5954C328.176 74.3648 328.081 74.0502 328.081 73.6518V65.3167C328.081 62.3391 326.679 60.8503 323.875 60.8503C322.034 60.8503 320.548 61.3955 319.418 62.4859C318.309 63.5763 317.755 65.0231 317.755 66.8265V73.6518C317.755 74.0293 317.65 74.3333 317.441 74.564C317.253 74.7946 316.97 74.91 316.594 74.91Z" fill="#90D2C8"/>
<path d="M341.651 82.4588C340.103 82.4588 338.721 82.2281 337.508 81.7668C336.294 81.3055 335.405 80.6764 334.84 79.8796C334.693 79.6699 334.62 79.4602 334.62 79.2505C334.62 78.915 334.788 78.6215 335.122 78.3698C335.248 78.265 335.436 78.2126 335.687 78.2126C336.043 78.2126 336.378 78.3803 336.692 78.7158C337.152 79.261 337.822 79.6909 338.701 80.0054C339.6 80.3409 340.552 80.5087 341.557 80.5087C343.44 80.5087 344.926 79.9425 346.014 78.8102C347.123 77.6779 347.677 76.1471 347.677 74.218V72.0792C347.029 72.9389 346.202 73.5994 345.198 74.0607C344.193 74.5011 343.084 74.7212 341.871 74.7212C339.318 74.7212 337.32 73.9978 335.876 72.551C334.453 71.0831 333.741 69.0492 333.741 66.449V60.0325C333.741 59.718 333.856 59.4559 334.087 59.2462C334.317 59.0155 334.599 58.9002 334.934 58.9002C335.269 58.9002 335.541 59.0155 335.75 59.2462C335.98 59.4559 336.095 59.718 336.095 60.0325V66.449C336.095 68.462 336.598 70.0347 337.602 71.167C338.627 72.2784 340.05 72.834 341.871 72.834C343.67 72.834 345.062 72.2993 346.045 71.2299C347.029 70.1605 347.52 68.6403 347.52 66.6692V60.3471C347.52 59.8857 347.625 59.5293 347.834 59.2776C348.064 59.005 348.378 58.8687 348.776 58.8687C349.153 58.8687 349.445 59.005 349.655 59.2776C349.885 59.5293 350 59.8857 350 60.3471V74.0607C350 75.7173 349.644 77.1746 348.933 78.4327C348.242 79.7118 347.269 80.6974 346.014 81.3894C344.758 82.1023 343.304 82.4588 341.651 82.4588Z" fill="#90D2C8"/>
</svg>
